<svg xmlns="http://www.w3.org/2000/svg" width="24" height="27" viewBox="0 0 24 27" fill="none">
<path d="M22 15.3V12.0603C22 7.05642 17.5228 3 12 3C6.47715 3 2 7.05642 2 12.0603V15.3" stroke="#5D6166" stroke-linecap="round"/>
<rect x="2" y="11.2002" width="2.5" height="4.92" rx="1" fill="white" stroke="#5D6166" stroke-linejoin="round"/>
<rect x="19.5" y="11.2002" width="2.5" height="4.92" rx="1" fill="white" stroke="#5D6166" stroke-linejoin="round"/>
<ellipse cx="8.66732" cy="10.7898" rx="0.833333" ry="1.23" fill="#5D6166"/>
<ellipse cx="15.3333" cy="10.7898" rx="0.833333" ry="1.23" fill="#5D6166"/>
<path d="M15.3327 14.4797C15.3327 16.2912 13.8403 17.7597 11.9993 17.7597C10.1584 17.7597 8.66602 16.2912 8.66602 14.4797" stroke="#5D6166" stroke-linecap="round"/>
<path d="M22.4994 15.3C22.4994 15.0239 22.2755 14.8 21.9994 14.8C21.7232 14.8 21.4994 15.0239 21.4994 15.3L22.4994 15.3ZM11.9993 23.5001V23.0001H11.9993L11.9993 23.5001ZM13.9993 22.6801C13.9993 22.9562 14.2232 23.1801 14.4993 23.1801C14.7755 23.1801 14.9993 22.9562 14.9993 22.6801H13.9993ZM11.166 23.5001H10.666C10.666 23.6327 10.7187 23.7598 10.8125 23.8536C10.9062 23.9474 11.0334 24.0001 11.166 24.0001L11.166 23.5001ZM21.4994 15.3C21.4993 19.9229 17.3642 23.0001 11.9993 23.0001V24.0001C17.6802 24.0001 22.4993 20.6849 22.4994 15.3L21.4994 15.3ZM11.666 22.6801C11.666 22.058 12.1807 21.5401 12.8327 21.5401V20.5401C11.6437 20.5401 10.666 21.4906 10.666 22.6801H11.666ZM12.8327 21.5401C13.4846 21.5401 13.9993 22.058 13.9993 22.6801H14.9993C14.9993 21.4906 14.0217 20.5401 12.8327 20.5401V21.5401ZM10.666 22.6801V23.5001H11.666V22.6801H10.666ZM11.9993 23.0001L11.166 23.0001L11.166 24.0001L11.9993 24.0001L11.9993 23.0001Z" fill="#5D6166"/>
</svg>