<svg width="18" height="19" viewBox="0 0 18 19" fill="none" xmlns="http://www.w3.org/2000/svg">
<circle cx="9" cy="9.5" r="9" fill="#4670F1"/>
<path d="M7.93594 11.9929V12.1184H9.53335V11.9929C9.54301 10.965 9.876 10.492 10.6675 10.0142C11.5506 9.48338 12.1056 8.75947 12.1056 7.64949C12.1056 6.02794 10.8364 5 8.99767 5C7.31338 5 5.94279 5.93625 5.89453 7.76531H7.60294C7.6512 6.85802 8.30272 6.42368 8.98801 6.42368C9.73122 6.42368 10.3248 6.91111 10.3248 7.67844C10.3248 8.35891 9.88083 8.81739 9.29205 9.18416C8.43785 9.71985 7.94559 10.2507 7.93594 11.9929ZM7.71877 14.0681C7.70912 14.6521 8.19172 15.125 8.77567 15.125C9.34514 15.125 9.82774 14.6521 9.83257 14.0681C9.82774 13.489 9.34514 13.0209 8.77567 13.0209C8.19172 13.0209 7.70912 13.489 7.71877 14.0681Z" fill="white"/>
</svg>
